<svg width="18" height="18" viewBox="0 0 18 18" fill="none" xmlns="http://www.w3.org/2000/svg"><path d="M15.51 0.874842L15.4943 0.869592L13.458 0.194592C12.7547 -0.0389161 11.998 -0.059528 11.283 0.135342L7.101 1.34959C6.58894 1.48529 6.04554 1.43753 5.565 1.21459L5.19 1.04059C4.62044 0.803722 4.00125 0.71101 3.3873 0.770672C2.77334 0.830334 2.18358 1.04053 1.67029 1.38262C1.157 1.72472 0.736017 2.18816 0.444663 2.73186C0.153308 3.27556 0.000575464 3.88274 0 4.49959L0 13.5558C0.0015762 14.3668 0.265344 15.1556 0.751943 15.8044C1.23854 16.4532 1.92188 16.9272 2.7 17.1558L4.85175 17.8308C5.21476 17.9437 5.59285 18.0006 5.973 17.9996C6.31186 18.0039 6.6495 17.9581 6.975 17.8638L11.325 16.6638C11.7225 16.556 12.142 16.5594 12.5377 16.6736L14.295 17.1806C14.7362 17.2873 15.1958 17.2924 15.6392 17.1957C16.0827 17.099 16.4984 16.9029 16.8551 16.6223C17.2118 16.3416 17.5002 15.9837 17.6985 15.5754C17.8968 15.1672 17.9999 14.7192 18 14.2653V4.40659C17.9989 3.63322 17.7591 2.87904 17.3135 2.24696C16.8679 1.61489 16.238 1.13572 15.51 0.874842ZM3.132 15.7188C2.66273 15.5831 2.25007 15.299 1.95585 14.9091C1.66163 14.5191 1.50169 14.0443 1.5 13.5558V4.49959C1.49636 4.1281 1.58622 3.76166 1.76132 3.43401C1.93642 3.10635 2.19113 2.828 2.502 2.62459C2.8719 2.37923 3.30612 2.24875 3.75 2.24959C4.03625 2.24967 4.31966 2.30625 4.584 2.41609C4.584 2.41609 5.14275 2.65534 5.24925 2.69359V16.3811L3.132 15.7188ZM6.75 16.3698V2.90884C7.00474 2.89532 7.2575 2.85638 7.5045 2.79259L11.25 1.70434V15.1496L6.75 16.3698ZM16.5 14.2653C16.5002 14.49 16.4499 14.7118 16.3528 14.9144C16.2558 15.117 16.1144 15.2953 15.9393 15.4359C15.7641 15.5766 15.5596 15.6761 15.3408 15.7272C15.122 15.7782 14.8946 15.7795 14.6752 15.7308L12.75 15.1886V1.55584L15.0135 2.29009C15.4485 2.44771 15.8245 2.73535 16.0904 3.11398C16.3564 3.49262 16.4994 3.9439 16.5 4.40659V14.2653Z" fill="white"/></svg>
